<svg width="25" height="25" viewBox="0 0 25 25" fill="none" xmlns="http://www.w3.org/2000/svg">
<path d="M23.4028 25L14.2708 15.8681L15.8681 14.2708L25 23.4028L23.4028 25ZM3.61111 23.4028C2.38426 22.0602 1.47569 20.5729 0.885417 18.941C0.295139 17.309 0 15.6481 0 13.9583C0 12.1528 0.335648 10.3935 1.00694 8.68056C1.67824 6.96759 2.69676 5.42824 4.0625 4.0625C5.42824 2.69676 6.97338 1.67824 8.69792 1.00694C10.4225 0.335648 12.1875 0 13.9931 0C15.6829 0 17.3438 0.295139 18.9757 0.885417C20.6076 1.47569 22.0833 2.38426 23.4028 3.61111L3.61111 23.4028ZM3.71528 20.3125L6.11111 17.8819C5.74074 17.3727 5.37037 16.8229 5 16.2326C4.62963 15.6424 4.28819 15.0174 3.97569 14.3576C3.66319 13.6979 3.40278 13.015 3.19444 12.309C2.98611 11.603 2.84722 10.8796 2.77778 10.1389C2.15278 11.8519 1.93866 13.5995 2.13542 15.3819C2.33218 17.1644 2.8588 18.8079 3.71528 20.3125ZM7.77778 16.3194L16.3194 7.70833C15.2546 6.875 14.1725 6.22107 13.0729 5.74653C11.9734 5.27199 10.9259 4.95949 9.93056 4.80903C8.93519 4.65857 8.04977 4.65857 7.27431 4.80903C6.49884 4.95949 5.90278 5.24306 5.48611 5.65972C5.06944 6.07639 4.80324 6.67245 4.6875 7.44792C4.57176 8.22338 4.60069 9.09144 4.77431 10.0521C4.94792 11.0127 5.28357 12.0313 5.78125 13.1076C6.27894 14.184 6.94444 15.2546 7.77778 16.3194ZM17.8819 6.11111L20.3819 3.71528C18.8542 2.74306 17.1933 2.17593 15.3993 2.01389C13.6053 1.85185 11.8519 2.10648 10.1389 2.77778C10.8333 2.84722 11.522 2.98611 12.2049 3.19444C12.8877 3.40278 13.559 3.65162 14.2188 3.94097C14.8785 4.23032 15.515 4.56019 16.1285 4.93056C16.7419 5.30093 17.3264 5.69444 17.8819 6.11111Z" fill="#555555"/>
</svg>
