<svg width="28" height="28" viewBox="0 0 28 28" fill="none" xmlns="http://www.w3.org/2000/svg">
<path d="M16.4747 28L14.9899 26.5152L20.0101 21.4949L6.50505 7.9899L1.48485 13.0101L0 11.5253L1.9798 9.47475L0 7.49495L3.00505 4.4899L1.5202 3.00505L3.00505 1.5202L4.52525 2.9697L7.49495 0L9.47475 1.9798L11.5253 0L13.0101 1.48485L7.9899 6.50505L21.4949 20.0101L26.5152 14.9899L28 16.4747L26.0202 18.5253L28 20.505L24.9596 23.5455L26.4444 25.0303L24.9596 26.5152L23.4747 25.0303L20.505 28L18.5253 26.0202L16.4747 28Z" fill="#555555"/>
</svg>
