<svg width="30" height="27" viewBox="0 0 30 27" fill="none" xmlns="http://www.w3.org/2000/svg">
<path d="M0 27V24.6033C0.9 24.5284 1.61875 24.2663 2.15625 23.8169C2.69375 23.3675 3.5375 23.1429 4.6875 23.1429C5.8375 23.1429 6.775 23.4112 7.5 23.948C8.225 24.4847 9.0625 24.7531 10.0125 24.7531C10.9625 24.7531 11.7438 24.4847 12.3563 23.948C12.9688 23.4112 13.85 23.1429 15 23.1429C16.15 23.1429 17.0875 23.4112 17.8125 23.948C18.5375 24.4847 19.375 24.7531 20.325 24.7531C21.275 24.7531 22.0625 24.4847 22.6875 23.948C23.3125 23.4112 24.2 23.1429 25.35 23.1429C26.5 23.1429 27.3375 23.3675 27.8625 23.8169C28.3875 24.2663 29.1 24.5284 30 24.6033V27C29.125 26.9251 28.3688 26.6442 27.7313 26.1574C27.0938 25.6706 26.3 25.4272 25.35 25.4272C24.4 25.4272 23.5875 25.6893 22.9125 26.2136C22.2375 26.7379 21.375 27 20.325 27C19.275 27 18.3625 26.7379 17.5875 26.2136C16.8125 25.6893 15.95 25.4272 15 25.4272C14.05 25.4272 13.2188 25.6893 12.5063 26.2136C11.7938 26.7379 10.9125 27 9.8625 27C8.8125 27 7.925 26.7379 7.2 26.2136C6.475 25.6893 5.6375 25.4272 4.6875 25.4272C3.7375 25.4272 2.9375 25.6706 2.2875 26.1574C1.6375 26.6442 0.875 26.9251 0 27ZM0 19.9598V17.7129C0.9 17.638 1.61875 17.3821 2.15625 16.9452C2.69375 16.5083 3.5375 16.2899 4.6875 16.2899C5.8375 16.2899 6.75 16.527 7.425 17.0014C8.1 17.4757 8.9125 17.7129 9.8625 17.7129C10.8125 17.7129 11.6188 17.4757 12.2813 17.0014C12.9438 16.527 13.85 16.2899 15 16.2899C16.15 16.2899 17.0625 16.527 17.7375 17.0014C18.4125 17.4757 19.225 17.7129 20.175 17.7129C21.125 17.7129 21.9375 17.4757 22.6125 17.0014C23.2875 16.527 24.2 16.2899 25.35 16.2899C26.5 16.2899 27.3375 16.5083 27.8625 16.9452C28.3875 17.3821 29.1 17.638 30 17.7129V19.9598C29.125 19.8849 28.3688 19.604 27.7313 19.1172C27.0938 18.6304 26.3 18.387 25.35 18.387C24.4 18.387 23.5875 18.6491 22.9125 19.1734C22.2375 19.6976 21.375 19.9598 20.325 19.9598C19.275 19.9598 18.3625 19.6976 17.5875 19.1734C16.8125 18.6491 15.95 18.387 15 18.387C14.05 18.387 13.2438 18.6491 12.5813 19.1734C11.9188 19.6976 11.0625 19.9598 10.0125 19.9598C8.9625 19.9598 8.05 19.6976 7.275 19.1734C6.5 18.6491 5.6375 18.387 4.6875 18.387C3.7375 18.387 2.9375 18.6304 2.2875 19.1172C1.6375 19.604 0.875 19.8849 0 19.9598ZM7.8 12.1706L12.8625 7.11512L10.8375 5.09293C9.9875 4.24411 9.125 3.67614 8.25 3.38904C7.375 3.10194 6.2625 2.95839 4.9125 2.95839V0C6.7125 0 8.19375 0.224688 9.35625 0.674064C10.5188 1.12344 11.65 1.89736 12.75 2.99584L22.2375 12.4702C21.9625 12.6949 21.6438 12.8571 21.2812 12.957C20.9188 13.0569 20.55 13.1068 20.175 13.1068C19.225 13.1068 18.4062 12.8447 17.7188 12.3204C17.0312 11.7961 16.125 11.534 15 11.534C13.875 11.534 12.975 11.7961 12.3 12.3204C11.625 12.8447 10.8125 13.1068 9.8625 13.1068C9.4125 13.1068 9.00625 13.0194 8.64375 12.8447C8.28125 12.6699 8 12.4452 7.8 12.1706ZM22.05 0.149792C23.05 0.149792 23.8938 0.493065 24.5813 1.17961C25.2688 1.86616 25.6125 2.70874 25.6125 3.70735C25.6125 4.70596 25.2688 5.54854 24.5813 6.23509C23.8938 6.92164 23.05 7.26491 22.05 7.26491C21.05 7.26491 20.2063 6.92164 19.5188 6.23509C18.8313 5.54854 18.4875 4.70596 18.4875 3.70735C18.4875 2.70874 18.8313 1.86616 19.5188 1.17961C20.2063 0.493065 21.05 0.149792 22.05 0.149792Z" fill="#555555"/>
</svg>
