<svg width="33" height="34" viewBox="0 0 33 34" fill="none" xmlns="http://www.w3.org/2000/svg">
<rect opacity="0.1" y="0.880005" width="32.43" height="32.43" rx="5" fill="#FE753F"/>
<path d="M18.5593 18.6491C18.0114 18.6491 17.5458 18.4573 17.1625 18.0738C16.7793 17.6902 16.5876 17.2245 16.5876 16.6765C16.5876 16.1286 16.7794 15.663 17.163 15.2797C17.5465 14.8964 18.0123 14.7048 18.5602 14.7048C19.1082 14.7048 19.5738 14.8966 19.957 15.2801C20.3403 15.6637 20.5319 16.1295 20.5319 16.6774C20.5319 17.2253 20.3402 17.6909 19.9566 18.0742C19.573 18.4575 19.1073 18.6491 18.5593 18.6491ZM18.5604 17.3896C18.7625 17.3896 18.9317 17.3212 19.068 17.1845C19.2043 17.0478 19.2724 16.8784 19.2724 16.6763C19.2724 16.4742 19.2041 16.305 19.0673 16.1687C18.9306 16.0325 18.7612 15.9643 18.5591 15.9643C18.357 15.9643 18.1878 16.0327 18.0516 16.1694C17.9153 16.3061 17.8472 16.4755 17.8472 16.6776C17.8472 16.8797 17.9155 17.0489 18.0522 17.1852C18.1889 17.3214 18.3583 17.3896 18.5604 17.3896ZM14.7126 23.3165V21.398C14.7126 21.1602 14.7691 20.9365 14.882 20.7269C14.9949 20.5174 15.1525 20.3513 15.355 20.2287C15.6958 20.0248 16.0497 19.8592 16.4167 19.732C16.7836 19.6047 17.1595 19.5084 17.5442 19.4429L18.5598 20.6131L19.5717 19.4429C19.9599 19.5084 20.3372 19.6047 20.7037 19.732C21.0702 19.8592 21.4238 20.0243 21.7646 20.2272C21.9671 20.3504 22.1247 20.516 22.2376 20.7243C22.3505 20.9325 22.4069 21.1553 22.4069 21.3928V23.3165H14.7126ZM15.9759 22.057H18.1406L17.1036 20.8424C16.9008 20.8895 16.7033 20.9523 16.5111 21.0309C16.3189 21.1095 16.1405 21.2031 15.9759 21.3117V22.057ZM18.9789 22.057H21.1474L21.1661 21.3132C20.994 21.2036 20.8095 21.1089 20.6126 21.029C20.4157 20.9492 20.2168 20.887 20.016 20.8424L18.9789 22.057ZM11.416 21.8882C11.0562 21.8882 10.7508 21.7619 10.4997 21.5092C10.2485 21.2565 10.123 20.9506 10.123 20.5914V12.431C10.123 12.0718 10.2493 11.7659 10.502 11.5132C10.7547 11.2605 11.0606 11.1342 11.4198 11.1342H19.5802C19.9394 11.1342 20.2453 11.2605 20.498 11.5132C20.7507 11.7659 20.877 12.0718 20.877 12.431V14.6216C20.7009 14.4196 20.5028 14.2471 20.283 14.1042C20.0631 13.9614 19.8288 13.8445 19.5802 13.7537V12.431H11.4198V20.5914H13.7283C13.6762 20.7195 13.6397 20.8511 13.6189 20.9861C13.5981 21.1212 13.5876 21.2562 13.5876 21.3913V21.8882H11.416ZM12.5448 14.681H16.2541C16.4875 14.434 16.755 14.2329 17.0564 14.0778C17.3578 13.9226 17.6758 13.8239 18.0105 13.7816V13.556H12.5448V14.681ZM12.5448 17.0737H15.4888C15.4555 16.8887 15.447 16.6998 15.4633 16.5071C15.4796 16.3144 15.5115 16.1283 15.5591 15.9487H12.5448V17.0737ZM12.5448 19.4664H14.499C14.6548 19.3343 14.8252 19.2226 15.0102 19.1312C15.1952 19.0398 15.3856 18.956 15.5812 18.8797V18.3414H12.5448V19.4664ZM11.4198 20.5914V12.431V13.7575V13.5798V20.5914Z" fill="#FE753F"/>
</svg>
