<svg width="37" height="33" viewBox="0 0 37 33" fill="none" xmlns="http://www.w3.org/2000/svg">
<rect opacity="0.1" y="0.00012207" width="36.335" height="32.43" rx="5" fill="#FE753F"/>
<path d="M17.5018 12.9601C15.9119 12.9601 14.6184 14.2028 14.6184 15.7304C14.6184 17.258 15.9119 18.5007 17.5018 18.5007C19.0917 18.5007 20.3851 17.258 20.3851 15.7304C20.3851 14.2028 19.0917 12.9601 17.5018 12.9601ZM19.2137 15.2087L17.1481 17.1933C17.0614 17.2766 16.9476 17.3183 16.834 17.3183C16.7204 17.3183 16.6068 17.2767 16.5201 17.1933L15.7307 16.4349C15.5573 16.2684 15.5573 15.9983 15.7307 15.8316C15.904 15.665 16.1852 15.665 16.3586 15.8316L16.834 16.2885L18.5858 14.6054C18.7591 14.4388 19.0403 14.4388 19.2137 14.6054C19.3871 14.7719 19.3871 15.042 19.2137 15.2087Z" fill="#FE753F"/>
<path d="M23.9301 12.4051L23.9297 12.3938C23.9231 12.2542 23.9187 12.1064 23.9161 11.942C23.9037 11.1403 23.2404 10.4772 22.4059 10.4323C20.666 10.3391 19.32 9.79394 18.1699 8.71691L18.1601 8.70793C17.785 8.37747 17.2191 8.37747 16.8439 8.70793L16.8341 8.71691C15.684 9.79394 14.338 10.3391 12.5981 10.4325C11.7637 10.4772 11.1003 11.1403 11.0879 11.9421C11.0854 12.1054 11.0809 12.2532 11.0743 12.3938L11.0736 12.4201C11.0398 14.1248 10.9978 16.2463 11.7365 18.172C12.1426 19.2309 12.7578 20.1514 13.5647 20.9081C14.4837 21.7698 15.6875 22.4539 17.1425 22.9413C17.1898 22.9572 17.239 22.97 17.2891 22.9797C17.3598 22.9932 17.4309 23 17.502 23C17.5731 23 17.6444 22.9932 17.7149 22.9797C17.765 22.97 17.8145 22.9571 17.8621 22.9411C19.3154 22.4528 20.5178 21.7683 21.4361 20.9067C22.2426 20.1499 22.8578 19.2291 23.2643 18.17C24.0058 16.2386 23.9639 14.113 23.9301 12.4051ZM17.5018 19.3538C15.4222 19.3538 13.7304 17.7284 13.7304 15.7303C13.7304 13.7322 15.4222 12.1067 17.5018 12.1067C19.5813 12.1067 21.2732 13.7322 21.2732 15.7303C21.2732 17.7284 19.5813 19.3538 17.5018 19.3538Z" fill="#FE753F"/>
</svg>
