<svg width="37" height="37" viewBox="0 0 37 37" fill="none" xmlns="http://www.w3.org/2000/svg">
<path d="M17.1693 22.9012L21.7003 18.3388L20.5578 17.1884L17.1741 20.5954L15.5281 18.9176L14.3605 20.073L17.1693 22.9012ZM13.676 26C13.21 26 12.8141 25.835 12.4885 25.5051C12.1628 25.1751 12 24.7757 12 24.3067V11.6933C12 11.2243 12.1638 10.8249 12.4915 10.4949C12.8192 10.165 13.2159 10 13.6817 10H20.0129L24 14.0146V24.3067C24 24.7757 23.8361 25.1751 23.5082 25.5051C23.1804 25.835 22.7835 26 22.3175 26H13.676ZM18.9144 15.1208V11.6933H13.6817V24.3067H22.3183V15.1208H18.9144Z" fill="#FE753F"/>
<path opacity="0.1" d="M0 5C0 2.23858 2.23858 0 5 0H32C34.7614 0 37 2.23858 37 5V32C37 34.7614 34.7614 37 32 37H5C2.23858 37 0 34.7614 0 32V5Z" fill="#FE753F"/>
</svg>
