<svg width="33" height="33" viewBox="0 0 33 33" fill="none" xmlns="http://www.w3.org/2000/svg">
<rect opacity="0.1" width="32.43" height="32.43" rx="5" fill="#FE753F"/>
<path d="M20.6549 16.6773V12.7324L17.7408 10.6203L14.8268 12.737V13.5615H13.5299V12.0802L17.7408 9.02039L21.9518 12.0645V16.6773H20.6549ZM17.9922 13.1484H18.6107V12.5299H17.9922V13.1484ZM16.8672 13.1484H17.4857V12.5299H16.8672V13.1484ZM17.9922 14.2734H18.6107V13.6549H17.9922V14.2734ZM16.8672 14.2734H17.4857V13.6549H16.8672V14.2734ZM17.5877 22.0469L13.5224 20.7925V21.6644H9.60056V14.6865H14.2351L18.4412 16.194C18.8074 16.3289 19.0885 16.5295 19.2845 16.7957C19.4805 17.0619 19.5785 17.3974 19.5785 17.8023H20.2127C20.8698 17.8023 21.4284 18.0155 21.8884 18.4418C22.3485 18.8681 22.5785 19.4049 22.5785 20.0523V20.5133L17.5877 22.0469ZM10.8376 20.4273H12.2816V15.9273H10.8376V20.4273ZM17.5877 20.7554L21.2595 19.6304C21.1554 19.4092 21.0088 19.2367 20.8197 19.1129C20.6307 18.9892 20.4281 18.9273 20.2121 18.9273H17.8339C17.2943 18.9273 16.843 18.9059 16.4801 18.8629C16.1172 18.82 15.8222 18.7542 15.5951 18.6654L14.7751 18.3336L15.1658 17.2711L15.8971 17.5605C16.1516 17.6592 16.4477 17.7242 16.7854 17.7554C17.123 17.7867 17.6405 17.8023 18.3377 17.8023C18.3377 17.6877 18.309 17.594 18.2517 17.5211C18.1944 17.4482 18.1189 17.3961 18.0252 17.3648L14.0251 15.9273H13.5224V19.501L17.5877 20.7554Z" fill="#FE753F"/>
</svg>
