<svg width="33" height="34" viewBox="0 0 33 34" fill="none" xmlns="http://www.w3.org/2000/svg">
<rect opacity="0.1" y="0.880127" width="32.43" height="32.43" rx="5" fill="#FE753F"/>
<path d="M20.4908 22.8101V13.0203C20.4908 12.7159 20.3829 12.4567 20.167 12.2426C19.951 12.0285 19.6915 11.9215 19.3882 11.9215H18.6831V12.6055C18.6831 12.7433 18.6392 12.8569 18.5514 12.9462C18.4636 13.0355 18.3538 13.0801 18.2222 13.0801H14.7378C14.5571 13.0801 14.426 13.0007 14.3446 12.8418C14.2632 12.683 14.2639 12.5182 14.3468 12.3474L15.5935 9.94608C15.6772 9.78724 15.7943 9.66315 15.9446 9.57382C16.095 9.48449 16.2583 9.43982 16.4344 9.43982H17.7853C18.0404 9.43982 18.2538 9.53448 18.4255 9.72379C18.5972 9.9131 18.6831 10.1412 18.6831 10.4082V10.6246H19.3882C20.0606 10.6246 20.6286 10.8558 21.0922 11.3182C21.5559 11.7806 21.7877 12.348 21.7877 13.0203V22.8101H20.4908ZM16.1141 11.7832H17.3862V10.7367H16.6512L16.1141 11.7832ZM11.1162 22.8101C10.5767 22.8101 10.1246 22.6261 9.75965 22.2581C9.39475 21.8901 9.2123 21.4342 9.2123 20.8902V19.177C9.2123 18.7956 9.3258 18.4589 9.55281 18.1669C9.77983 17.8749 10.0862 17.6849 10.4718 17.5971V16.5066C10.4718 16.1512 10.5988 15.847 10.8528 15.5939C11.1067 15.3408 11.412 15.2143 11.7687 15.2143H16.9253C17.2819 15.2143 17.5872 15.3408 17.8412 15.5939C18.0952 15.847 18.2222 16.1512 18.2222 16.5066V17.5971C18.6078 17.6849 18.9135 17.8794 19.1393 18.1803C19.365 18.4813 19.4779 18.8148 19.4779 19.181V20.8902C19.4779 21.4342 19.2963 21.8901 18.9329 22.2581C18.5696 22.6261 18.1179 22.8101 17.5778 22.8101H11.1162ZM11.7687 16.5111V17.7938C12.0262 17.952 12.2193 18.1521 12.348 18.3938C12.4767 18.6356 12.5411 18.898 12.5411 19.181V19.4999H16.1528V19.181C16.1528 18.898 16.2198 18.6356 16.3538 18.3938C16.4877 18.1521 16.6782 17.952 16.9253 17.7938V16.5111H11.7687ZM11.1162 21.5132H17.5778C17.7399 21.5132 17.881 21.4512 18.001 21.3272C18.121 21.2032 18.181 21.0577 18.181 20.8906V19.181C18.181 19.0802 18.1455 18.9944 18.0745 18.9235C18.0035 18.8526 17.9174 18.8172 17.8164 18.8172C17.7153 18.8172 17.6289 18.8526 17.5572 18.9235C17.4856 18.9944 17.4497 19.0802 17.4497 19.181V20.7968H11.2442V19.181C11.2442 19.0802 11.2085 18.9944 11.137 18.9235C11.0655 18.8526 10.9788 18.8172 10.877 18.8172C10.7751 18.8172 10.6883 18.8526 10.6167 18.9235C10.545 18.9944 10.5092 19.0802 10.5092 19.181V20.8906C10.5092 21.0577 10.5698 21.2032 10.6911 21.3272C10.8123 21.4512 10.954 21.5132 11.1162 21.5132Z" fill="#FE753F"/>
</svg>
