<svg width="33" height="33" viewBox="0 0 33 33" fill="none" xmlns="http://www.w3.org/2000/svg">
<rect opacity="0.1" width="32.43" height="32.43" rx="5" fill="#FE753F"/>
<path d="M15.0421 16.5829L15.5958 14.7708L14.1304 13.6471H15.9244L16.5156 11.4026L17.0756 13.6471H18.8696L17.408 14.7708L17.9579 16.5829L16.5 15.4606L15.0421 16.5829ZM13.0533 22.3658V17.9759C12.5855 17.5756 12.2093 17.0417 11.9248 16.3744C11.6402 15.7071 11.498 15.0331 11.498 14.3526C11.498 12.9661 11.985 11.7858 12.9591 10.8117C13.9331 9.83762 15.1134 9.35059 16.5 9.35059C17.8866 9.35059 19.0669 9.83762 20.0409 10.8117C21.015 11.7858 21.502 12.9661 21.502 14.3526C21.502 15.0436 21.3702 15.7201 21.1065 16.3822C20.8428 17.0443 20.451 17.5808 19.931 17.9916V22.3658L16.5 21.6047L13.0533 22.3658ZM16.5 18.0578C17.5292 18.0578 18.404 17.6976 19.1245 16.9771C19.8449 16.2567 20.2052 15.3818 20.2052 14.3526C20.2052 13.3234 19.8449 12.4486 19.1245 11.7281C18.404 11.0077 17.5292 10.6475 16.5 10.6475C15.4708 10.6475 14.596 11.0077 13.8755 11.7281C13.1551 12.4486 12.7948 13.3234 12.7948 14.3526C12.7948 15.3818 13.1551 16.2567 13.8755 16.9771C14.596 17.6976 15.4708 18.0578 16.5 18.0578ZM14.2344 20.9036L16.5 20.3774L18.75 20.9036V18.8034C18.4038 18.9884 18.0409 19.1265 17.6615 19.2178C17.2821 19.309 16.895 19.3547 16.5 19.3547C16.105 19.3547 15.7153 19.3116 15.3307 19.2256C14.946 19.1395 14.5806 18.9988 14.2344 18.8034V20.9036Z" fill="#FE753F"/>
</svg>
